<mxfile host="Electron" agent="Mozilla/5.0 (X11; Linux aarch64) AppleWebKit/537.36 (KHTML, like Gecko) draw.io/27.0.5 Chrome/134.0.6998.205 Electron/35.3.0 Safari/537.36" version="27.0.5">
  <diagram name="Page-1" id="0ouRcPtObN_wQ98IP1Oh">
    <mxGraphModel dx="2422" dy="2296" grid="1" gridSize="10" guides="1" tooltips="1" connect="1" arrows="1" fold="1" page="1" pageScale="1" pageWidth="850" pageHeight="1100" math="0" shadow="0">
      <root>
        <mxCell id="0" />
        <mxCell id="1" parent="0" />
        <mxCell id="rywL7MJu8Erwyj4a9i6U-1" value="&lt;font style=&quot;color: rgb(0, 0, 0);&quot;&gt;IDLE&lt;/font&gt;" style="rounded=1;whiteSpace=wrap;html=1;fillColor=#cce5ff;strokeColor=#36393d;fontStyle=1" parent="1" vertex="1">
          <mxGeometry x="555" y="100" width="120" height="60" as="geometry" />
        </mxCell>
        <mxCell id="rywL7MJu8Erwyj4a9i6U-2" value="&lt;font style=&quot;color: rgb(0, 0, 0);&quot;&gt;HUMIDIFYING&lt;/font&gt;" style="rounded=1;whiteSpace=wrap;html=1;fillColor=#cce5ff;strokeColor=#36393d;fontStyle=1" parent="1" vertex="1">
          <mxGeometry x="-45" y="100" width="120" height="60" as="geometry" />
        </mxCell>
        <mxCell id="rywL7MJu8Erwyj4a9i6U-3" value="&lt;font style=&quot;color: rgb(0, 0, 0);&quot;&gt;COOLING&lt;/font&gt;" style="rounded=1;whiteSpace=wrap;html=1;fillColor=#cce5ff;strokeColor=#36393d;fontStyle=1" parent="1" vertex="1">
          <mxGeometry x="555" y="500" width="120" height="60" as="geometry" />
        </mxCell>
        <mxCell id="rywL7MJu8Erwyj4a9i6U-4" value="&lt;font style=&quot;color: rgb(0, 0, 0);&quot;&gt;HEATING&lt;/font&gt;" style="rounded=1;whiteSpace=wrap;html=1;fillColor=#cce5ff;strokeColor=#36393d;fontStyle=1" parent="1" vertex="1">
          <mxGeometry x="555" y="-300" width="120" height="60" as="geometry" />
        </mxCell>
        <mxCell id="rywL7MJu8Erwyj4a9i6U-5" value="&lt;font style=&quot;color: rgb(0, 0, 0);&quot;&gt;VENTILATING&lt;/font&gt;" style="rounded=1;whiteSpace=wrap;html=1;fillColor=#cce5ff;strokeColor=#36393d;fontStyle=1" parent="1" vertex="1">
          <mxGeometry x="1155" y="100" width="120" height="60" as="geometry" />
        </mxCell>
        <mxCell id="rywL7MJu8Erwyj4a9i6U-7" value="" style="endArrow=classic;html=1;rounded=0;exitX=1;exitY=0.25;exitDx=0;exitDy=0;entryX=0;entryY=0.25;entryDx=0;entryDy=0;fillColor=#e51400;strokeColor=#B20000;" parent="1" source="rywL7MJu8Erwyj4a9i6U-1" target="rywL7MJu8Erwyj4a9i6U-5" edge="1">
          <mxGeometry width="50" height="50" relative="1" as="geometry">
            <mxPoint x="675" y="90" as="sourcePoint" />
            <mxPoint x="1075" y="90" as="targetPoint" />
          </mxGeometry>
        </mxCell>
        <mxCell id="5xQOcERZIxtagGMFa1CP-1" value="&lt;div style=&quot;font-family: &amp;quot;Droid Sans Mono&amp;quot;, &amp;quot;monospace&amp;quot;, monospace; line-height: 19px; white-space-collapse: preserve;&quot;&gt;&lt;font style=&quot;font-size: 12px;&quot;&gt;_forceVentilation &lt;span style=&quot;&quot;&gt;||&lt;/span&gt; &lt;span style=&quot;&quot;&gt;isVentilationTime&lt;/span&gt;(now)&lt;/font&gt;&lt;/div&gt;&lt;div style=&quot;font-family: &amp;quot;Droid Sans Mono&amp;quot;, &amp;quot;monospace&amp;quot;, monospace; line-height: 19px; white-space-collapse: preserve;&quot;&gt;&lt;font style=&quot;font-size: 12px;&quot;&gt;/&lt;/font&gt;&lt;/div&gt;&lt;div style=&quot;font-family: &amp;quot;Droid Sans Mono&amp;quot;, &amp;quot;monospace&amp;quot;, monospace; line-height: 19px; white-space-collapse: preserve;&quot;&gt;&lt;div style=&quot;line-height: 19px;&quot;&gt;&lt;div style=&quot;&quot;&gt;&lt;font style=&quot;font-size: 12px;&quot;&gt;&lt;span style=&quot;&quot;&gt;_flap&lt;/span&gt;.&lt;span style=&quot;&quot;&gt;on&lt;/span&gt;();&lt;/font&gt;&lt;/div&gt;&lt;div style=&quot;&quot;&gt;&lt;font style=&quot;font-size: 12px;&quot;&gt;&lt;span style=&quot;&quot;&gt;_fan&lt;/span&gt;.&lt;span style=&quot;&quot;&gt;on&lt;/span&gt;();&lt;/font&gt;&lt;/div&gt;&lt;div style=&quot;&quot;&gt;&lt;font style=&quot;font-size: 12px;&quot;&gt;_state &lt;span style=&quot;&quot;&gt;=&lt;/span&gt; VENTILATING;&lt;/font&gt;&lt;/div&gt;&lt;div style=&quot;&quot;&gt;&lt;font style=&quot;font-size: 12px;&quot;&gt;_lastStateChangeTime &lt;span style=&quot;&quot;&gt;=&lt;/span&gt; now;&lt;/font&gt;&lt;/div&gt;&lt;div style=&quot;&quot;&gt;&lt;font style=&quot;font-size: 12px;&quot;&gt;_forceVentilation &lt;span style=&quot;&quot;&gt;=&lt;/span&gt; &lt;span style=&quot;&quot;&gt;false&lt;/span&gt;;&lt;/font&gt;&lt;/div&gt;&lt;/div&gt;&lt;/div&gt;" style="edgeLabel;html=1;align=left;verticalAlign=middle;resizable=0;points=[];fontSize=10;labelBackgroundColor=none;fontColor=#CC0000;" vertex="1" connectable="0" parent="rywL7MJu8Erwyj4a9i6U-7">
          <mxGeometry x="0.1278" y="3" relative="1" as="geometry">
            <mxPoint x="-260" y="-72" as="offset" />
          </mxGeometry>
        </mxCell>
        <mxCell id="rywL7MJu8Erwyj4a9i6U-8" value="" style="endArrow=classic;html=1;rounded=0;exitX=0;exitY=0.75;exitDx=0;exitDy=0;entryX=1;entryY=0.75;entryDx=0;entryDy=0;fillColor=#008a00;strokeColor=#005700;" parent="1" source="rywL7MJu8Erwyj4a9i6U-5" target="rywL7MJu8Erwyj4a9i6U-1" edge="1">
          <mxGeometry width="50" height="50" relative="1" as="geometry">
            <mxPoint x="595" y="150" as="sourcePoint" />
            <mxPoint x="645" y="100" as="targetPoint" />
          </mxGeometry>
        </mxCell>
        <mxCell id="5xQOcERZIxtagGMFa1CP-8" value="&lt;div style=&quot;font-family: &amp;quot;Droid Sans Mono&amp;quot;, &amp;quot;monospace&amp;quot;, monospace; line-height: 19px; white-space-collapse: preserve;&quot;&gt;&lt;div style=&quot;&quot;&gt;&lt;font style=&quot;font-size: 12px;&quot;&gt;(now &lt;span&gt;-&lt;/span&gt; _lastStateChangeTime &lt;span&gt;&amp;gt;=&lt;/span&gt; VENTILATION_DURATION_MS)&lt;/font&gt;&lt;/div&gt;&lt;div style=&quot;&quot;&gt;&lt;font style=&quot;font-size: 12px;&quot;&gt;/&lt;/font&gt;&lt;/div&gt;&lt;div style=&quot;&quot;&gt;&lt;font style=&quot;font-size: 12px;&quot;&gt;                &lt;span&gt;_fan&lt;/span&gt;.&lt;span&gt;off&lt;/span&gt;();&lt;/font&gt;&lt;/div&gt;&lt;div style=&quot;&quot;&gt;&lt;font style=&quot;font-size: 12px;&quot;&gt;                &lt;span&gt;_flap&lt;/span&gt;.&lt;span&gt;off&lt;/span&gt;();&lt;/font&gt;&lt;/div&gt;&lt;div style=&quot;&quot;&gt;&lt;font style=&quot;font-size: 12px;&quot;&gt;                _state &lt;span&gt;=&lt;/span&gt; IDLE;&lt;/font&gt;&lt;/div&gt;&lt;div style=&quot;&quot;&gt;&lt;font style=&quot;font-size: 12px;&quot;&gt;                _lastStateChangeTime &lt;span&gt;=&lt;/span&gt; now;&lt;/font&gt;&lt;/div&gt;&lt;/div&gt;" style="edgeLabel;html=1;align=right;verticalAlign=middle;resizable=0;points=[];labelBackgroundColor=none;fontColor=#006600;" vertex="1" connectable="0" parent="rywL7MJu8Erwyj4a9i6U-8">
          <mxGeometry x="-0.7415" y="3" relative="1" as="geometry">
            <mxPoint x="51" y="62" as="offset" />
          </mxGeometry>
        </mxCell>
        <mxCell id="rywL7MJu8Erwyj4a9i6U-11" value="" style="endArrow=classic;html=1;rounded=0;exitX=0.75;exitY=1;exitDx=0;exitDy=0;entryX=0.75;entryY=0;entryDx=0;entryDy=0;fillColor=#008a00;strokeColor=#005700;" parent="1" source="rywL7MJu8Erwyj4a9i6U-4" target="rywL7MJu8Erwyj4a9i6U-1" edge="1">
          <mxGeometry width="50" height="50" relative="1" as="geometry">
            <mxPoint x="595" y="40" as="sourcePoint" />
            <mxPoint x="645" y="-10" as="targetPoint" />
          </mxGeometry>
        </mxCell>
        <mxCell id="5xQOcERZIxtagGMFa1CP-10" value="&lt;div style=&quot;font-family: &amp;quot;Droid Sans Mono&amp;quot;, &amp;quot;monospace&amp;quot;, monospace; line-height: 19px; white-space-collapse: preserve;&quot;&gt;&lt;div style=&quot;&quot;&gt;&lt;font style=&quot;font-size: 12px;&quot;&gt;&lt;span style=&quot;&quot;&gt;_dht&lt;/span&gt;.&lt;span style=&quot;&quot;&gt;getTemperature&lt;/span&gt;() &lt;span style=&quot;&quot;&gt;&amp;gt;&lt;/span&gt; &lt;span style=&quot;&quot;&gt;getTempLowerThreshold&lt;/span&gt;() &lt;span style=&quot;&quot;&gt;||&lt;/span&gt;&lt;/font&gt;&lt;/div&gt;&lt;div style=&quot;&quot;&gt;&lt;font style=&quot;font-size: 12px;&quot;&gt;(now &lt;span style=&quot;&quot;&gt;-&lt;/span&gt; _heatingStartTime) &lt;span style=&quot;&quot;&gt;&amp;gt;=&lt;/span&gt; MAX_HEATER_OPERATION_TIME_MS&lt;/font&gt;&lt;/div&gt;&lt;div style=&quot;&quot;&gt;&lt;font style=&quot;font-size: 12px;&quot;&gt;/&lt;/font&gt;&lt;/div&gt;&lt;div style=&quot;&quot;&gt;&lt;font style=&quot;font-size: 12px;&quot;&gt;&lt;span style=&quot;&quot;&gt;_peltier&lt;/span&gt;.&lt;span style=&quot;&quot;&gt;off&lt;/span&gt;();&lt;/font&gt;&lt;/div&gt;&lt;div style=&quot;&quot;&gt;&lt;font style=&quot;font-size: 12px;&quot;&gt;_heaterLastUseTime &lt;span style=&quot;&quot;&gt;=&lt;/span&gt; now;&lt;/font&gt;&lt;/div&gt;&lt;div style=&quot;&quot;&gt;&lt;font style=&quot;font-size: 12px;&quot;&gt;_state &lt;span style=&quot;&quot;&gt;=&lt;/span&gt; IDLE;&lt;/font&gt;&lt;/div&gt;&lt;div style=&quot;&quot;&gt;&lt;font style=&quot;font-size: 12px;&quot;&gt;_lastStateChangeTime &lt;span style=&quot;&quot;&gt;=&lt;/span&gt; now;&lt;/font&gt;&lt;/div&gt;&lt;/div&gt;" style="edgeLabel;html=1;align=left;verticalAlign=middle;resizable=0;points=[];labelBackgroundColor=none;fontColor=#006600;" vertex="1" connectable="0" parent="rywL7MJu8Erwyj4a9i6U-11">
          <mxGeometry x="-0.5825" y="1" relative="1" as="geometry">
            <mxPoint x="9" y="1" as="offset" />
          </mxGeometry>
        </mxCell>
        <mxCell id="rywL7MJu8Erwyj4a9i6U-12" value="" style="endArrow=classic;html=1;rounded=0;entryX=0.25;entryY=1;entryDx=0;entryDy=0;exitX=0.25;exitY=0;exitDx=0;exitDy=0;fillColor=#e51400;strokeColor=#B20000;" parent="1" source="rywL7MJu8Erwyj4a9i6U-1" target="rywL7MJu8Erwyj4a9i6U-4" edge="1">
          <mxGeometry width="50" height="50" relative="1" as="geometry">
            <mxPoint x="595" y="40" as="sourcePoint" />
            <mxPoint x="645" y="-10" as="targetPoint" />
          </mxGeometry>
        </mxCell>
        <mxCell id="5xQOcERZIxtagGMFa1CP-4" value="&lt;div style=&quot;font-family: &amp;quot;Droid Sans Mono&amp;quot;, &amp;quot;monospace&amp;quot;, monospace; line-height: 19px; white-space-collapse: preserve;&quot;&gt;&lt;div style=&quot;&quot;&gt;&lt;font style=&quot;font-size: 12px;&quot;&gt;_lastTemp &lt;span style=&quot;&quot;&gt;&amp;lt;=&lt;/span&gt; _tempLowerThreshold &lt;span style=&quot;&quot;&gt;&amp;amp;&amp;amp;&lt;/span&gt;&lt;/font&gt;&lt;/div&gt;&lt;div style=&quot;&quot;&gt;&lt;font style=&quot;font-size: 12px;&quot;&gt;&lt;span style=&quot;&quot;&gt;(now &lt;/span&gt;&lt;span style=&quot;&quot;&gt;-&lt;/span&gt;&lt;span style=&quot;&quot;&gt; _heaterLastUseTime) &lt;/span&gt;&lt;span style=&quot;&quot;&gt;&amp;gt;=&lt;/span&gt;&lt;span style=&quot;&quot;&gt; MIN_TIME_BETWEEN_HEATER_OPERATIONS_MS&lt;/span&gt;&lt;/font&gt;&lt;/div&gt;&lt;div style=&quot;&quot;&gt;&lt;font style=&quot;font-size: 12px;&quot;&gt;&lt;span style=&quot;&quot;&gt;/&lt;/span&gt;&lt;/font&gt;&lt;/div&gt;&lt;div style=&quot;&quot;&gt;&lt;font style=&quot;font-size: 12px;&quot;&gt;&lt;span style=&quot;&quot;&gt;_peltier&lt;/span&gt;.&lt;span style=&quot;&quot;&gt;setMode&lt;/span&gt;(&lt;span style=&quot;&quot;&gt;PeltierController&lt;/span&gt;::HEATING);&lt;/font&gt;&lt;/div&gt;&lt;div style=&quot;&quot;&gt;&lt;font style=&quot;font-size: 12px;&quot;&gt;&lt;span style=&quot;&quot;&gt;_peltier&lt;/span&gt;.&lt;span style=&quot;&quot;&gt;setDutyCycle&lt;/span&gt;(PELTIER_MAX_POWER_DUTY_CYCLE);&lt;/font&gt;&lt;/div&gt;&lt;div style=&quot;&quot;&gt;&lt;font style=&quot;font-size: 12px;&quot;&gt;&lt;span style=&quot;&quot;&gt;_peltier&lt;/span&gt;.&lt;span style=&quot;&quot;&gt;on&lt;/span&gt;();&lt;/font&gt;&lt;/div&gt;&lt;div style=&quot;&quot;&gt;&lt;font style=&quot;font-size: 12px;&quot;&gt;_heatingStartTime &lt;span style=&quot;&quot;&gt;=&lt;/span&gt; now;&lt;/font&gt;&lt;/div&gt;&lt;div style=&quot;&quot;&gt;&lt;font style=&quot;font-size: 12px;&quot;&gt;_state &lt;span style=&quot;&quot;&gt;=&lt;/span&gt; HEATING;&lt;/font&gt;&lt;/div&gt;&lt;div style=&quot;&quot;&gt;&lt;font style=&quot;font-size: 12px;&quot;&gt;_lastStateChangeTime &lt;span style=&quot;&quot;&gt;=&lt;/span&gt; now;&lt;/font&gt;&lt;/div&gt;&lt;/div&gt;" style="edgeLabel;html=1;align=right;verticalAlign=middle;resizable=0;points=[];labelBackgroundColor=none;fontColor=#CC0000;" vertex="1" connectable="0" parent="rywL7MJu8Erwyj4a9i6U-12">
          <mxGeometry x="-0.2672" y="2" relative="1" as="geometry">
            <mxPoint x="-8" y="-124" as="offset" />
          </mxGeometry>
        </mxCell>
        <mxCell id="rywL7MJu8Erwyj4a9i6U-13" value="" style="endArrow=classic;html=1;rounded=0;entryX=0.75;entryY=0;entryDx=0;entryDy=0;exitX=0.75;exitY=1;exitDx=0;exitDy=0;fillColor=#e51400;strokeColor=#B20000;" parent="1" source="rywL7MJu8Erwyj4a9i6U-1" target="rywL7MJu8Erwyj4a9i6U-3" edge="1">
          <mxGeometry width="50" height="50" relative="1" as="geometry">
            <mxPoint x="585" y="210" as="sourcePoint" />
            <mxPoint x="595" y="230" as="targetPoint" />
          </mxGeometry>
        </mxCell>
        <mxCell id="5xQOcERZIxtagGMFa1CP-3" value="&lt;div style=&quot;font-family: &amp;quot;Droid Sans Mono&amp;quot;, &amp;quot;monospace&amp;quot;, monospace; line-height: 19px; white-space-collapse: preserve;&quot;&gt;&lt;div style=&quot;&quot;&gt;&lt;span&gt;&lt;font style=&quot;font-size: 12px;&quot;&gt;_lastTemp &lt;span style=&quot;&quot;&gt;&amp;gt;=&lt;/span&gt; _tempUpperThreshold &lt;span style=&quot;&quot;&gt;&amp;amp;&amp;amp;&lt;/span&gt;&lt;/font&gt;&lt;/span&gt;&lt;/div&gt;&lt;div style=&quot;&quot;&gt;&lt;span&gt;&lt;span style=&quot;font-size: 12px;&quot;&gt;(now &lt;/span&gt;&lt;span style=&quot;font-size: 12px;&quot;&gt;-&lt;/span&gt;&lt;span style=&quot;font-size: 12px;&quot;&gt; _coolerLastUseTime) &lt;/span&gt;&lt;span style=&quot;font-size: 12px;&quot;&gt;&amp;gt;=&lt;/span&gt;&lt;span style=&quot;font-size: 12px;&quot;&gt; MIN_TIME_BETWEEN_COOLER_OPERATIONS_MS&lt;/span&gt;&lt;/span&gt;&lt;/div&gt;&lt;div style=&quot;&quot;&gt;&lt;font style=&quot;font-size: 12px;&quot;&gt;/&lt;/font&gt;&lt;/div&gt;&lt;div style=&quot;&quot;&gt;&lt;font style=&quot;font-size: 12px;&quot;&gt;&lt;span style=&quot;&quot;&gt;_peltier&lt;/span&gt;.&lt;span style=&quot;&quot;&gt;setMode&lt;/span&gt;(&lt;span style=&quot;&quot;&gt;PeltierController&lt;/span&gt;::COOLING);&lt;/font&gt;&lt;/div&gt;&lt;div style=&quot;&quot;&gt;&lt;font style=&quot;font-size: 12px;&quot;&gt;&lt;span style=&quot;&quot;&gt;_peltier&lt;/span&gt;.&lt;span style=&quot;&quot;&gt;setDutyCycle&lt;/span&gt;(PELTIER_MAX_POWER_DUTY_CYCLE);&lt;/font&gt;&lt;/div&gt;&lt;div style=&quot;&quot;&gt;&lt;font style=&quot;font-size: 12px;&quot;&gt;&lt;span style=&quot;&quot;&gt;_peltier&lt;/span&gt;.&lt;span style=&quot;&quot;&gt;on&lt;/span&gt;();&lt;/font&gt;&lt;/div&gt;&lt;div style=&quot;&quot;&gt;&lt;font style=&quot;font-size: 12px;&quot;&gt;_coolingStartTime &lt;span style=&quot;&quot;&gt;=&lt;/span&gt; now;&lt;/font&gt;&lt;/div&gt;&lt;div style=&quot;&quot;&gt;&lt;font style=&quot;font-size: 12px;&quot;&gt;_state &lt;span style=&quot;&quot;&gt;=&lt;/span&gt; COOLING;&lt;/font&gt;&lt;/div&gt;&lt;div style=&quot;&quot;&gt;&lt;font style=&quot;font-size: 12px;&quot;&gt;_lastStateChangeTime &lt;span style=&quot;&quot;&gt;=&lt;/span&gt; now;&lt;/font&gt;&lt;/div&gt;&lt;/div&gt;" style="edgeLabel;html=1;align=left;verticalAlign=middle;resizable=0;points=[];labelBackgroundColor=none;fontColor=#CC0000;" vertex="1" connectable="0" parent="rywL7MJu8Erwyj4a9i6U-13">
          <mxGeometry x="-0.3481" y="4" relative="1" as="geometry">
            <mxPoint x="6" y="133" as="offset" />
          </mxGeometry>
        </mxCell>
        <mxCell id="rywL7MJu8Erwyj4a9i6U-14" value="" style="endArrow=classic;html=1;rounded=0;exitX=0.25;exitY=0;exitDx=0;exitDy=0;entryX=0.25;entryY=1;entryDx=0;entryDy=0;fillColor=#008a00;strokeColor=#005700;" parent="1" source="rywL7MJu8Erwyj4a9i6U-3" target="rywL7MJu8Erwyj4a9i6U-1" edge="1">
          <mxGeometry width="50" height="50" relative="1" as="geometry">
            <mxPoint x="585" y="220" as="sourcePoint" />
            <mxPoint x="635" y="170" as="targetPoint" />
          </mxGeometry>
        </mxCell>
        <mxCell id="5xQOcERZIxtagGMFa1CP-9" value="&lt;div style=&quot;font-family: &amp;quot;Droid Sans Mono&amp;quot;, &amp;quot;monospace&amp;quot;, monospace; line-height: 19px; white-space-collapse: preserve;&quot;&gt;&lt;div style=&quot;&quot;&gt;&lt;font style=&quot;font-size: 12px;&quot;&gt;&lt;span style=&quot;&quot;&gt;_dht&lt;/span&gt;.&lt;span style=&quot;&quot;&gt;getTemperature&lt;/span&gt;() &lt;span style=&quot;&quot;&gt;&amp;lt;&lt;/span&gt; &lt;span style=&quot;&quot;&gt;getTempUpperThreshold&lt;/span&gt;() &lt;span style=&quot;&quot;&gt;||&lt;/span&gt;&lt;/font&gt;&lt;/div&gt;&lt;div style=&quot;&quot;&gt;&lt;font style=&quot;font-size: 12px;&quot;&gt;                (now &lt;span style=&quot;&quot;&gt;-&lt;/span&gt; _coolingStartTime) &lt;span style=&quot;&quot;&gt;&amp;gt;=&lt;/span&gt; MAX_COOLER_OPERATION_TIME_MS&lt;/font&gt;&lt;/div&gt;&lt;div style=&quot;&quot;&gt;&lt;font style=&quot;font-size: 12px;&quot;&gt;/&lt;/font&gt;&lt;/div&gt;&lt;div style=&quot;&quot;&gt;&lt;font style=&quot;font-size: 12px;&quot;&gt;                &lt;span style=&quot;&quot;&gt;_peltier&lt;/span&gt;.&lt;span style=&quot;&quot;&gt;off&lt;/span&gt;();&lt;/font&gt;&lt;/div&gt;&lt;div style=&quot;&quot;&gt;&lt;font style=&quot;font-size: 12px;&quot;&gt;                _coolerLastUseTime &lt;span style=&quot;&quot;&gt;=&lt;/span&gt; now;&lt;/font&gt;&lt;/div&gt;&lt;div style=&quot;&quot;&gt;&lt;font style=&quot;font-size: 12px;&quot;&gt;                _state &lt;span style=&quot;&quot;&gt;=&lt;/span&gt; IDLE;&lt;/font&gt;&lt;/div&gt;&lt;div style=&quot;&quot;&gt;&lt;font style=&quot;font-size: 12px;&quot;&gt;                _lastStateChangeTime &lt;span style=&quot;&quot;&gt;=&lt;/span&gt; now;&lt;/font&gt;&lt;/div&gt;&lt;/div&gt;" style="edgeLabel;html=1;align=right;verticalAlign=middle;resizable=0;points=[];labelBackgroundColor=none;fontColor=#006600;" vertex="1" connectable="0" parent="rywL7MJu8Erwyj4a9i6U-14">
          <mxGeometry x="-0.4217" y="-2" relative="1" as="geometry">
            <mxPoint x="-12" y="-17" as="offset" />
          </mxGeometry>
        </mxCell>
        <mxCell id="rywL7MJu8Erwyj4a9i6U-15" value="" style="endArrow=classic;html=1;rounded=0;exitX=0;exitY=0.75;exitDx=0;exitDy=0;entryX=1;entryY=0.75;entryDx=0;entryDy=0;fillColor=#e51400;strokeColor=#B20000;" parent="1" source="rywL7MJu8Erwyj4a9i6U-1" target="rywL7MJu8Erwyj4a9i6U-2" edge="1">
          <mxGeometry width="50" height="50" relative="1" as="geometry">
            <mxPoint x="565" y="220" as="sourcePoint" />
            <mxPoint x="615" y="170" as="targetPoint" />
          </mxGeometry>
        </mxCell>
        <mxCell id="5xQOcERZIxtagGMFa1CP-7" value="&lt;div style=&quot;font-family: &amp;quot;Droid Sans Mono&amp;quot;, &amp;quot;monospace&amp;quot;, monospace; line-height: 19px; white-space-collapse: preserve;&quot;&gt;&lt;div style=&quot;&quot;&gt;&lt;font style=&quot;font-size: 12px;&quot;&gt;_lastHumidity &lt;span style=&quot;&quot;&gt;&amp;lt;&lt;/span&gt; _humLowerThreshold &lt;span style=&quot;&quot;&gt;&amp;amp;&amp;amp;&lt;/span&gt;&lt;/font&gt;&lt;/div&gt;&lt;div style=&quot;&quot;&gt;&lt;font style=&quot;font-size: 12px;&quot;&gt;(now &lt;span style=&quot;&quot;&gt;-&lt;/span&gt; _humidifierLastUseTime) &lt;span style=&quot;&quot;&gt;&amp;gt;=&lt;/span&gt; MIN_TIME_BETWEEN_HUMIDIFIER_OPERATIONS_MS&lt;/font&gt;&lt;/div&gt;&lt;div style=&quot;&quot;&gt;&lt;font style=&quot;font-size: 12px;&quot;&gt;/&lt;/font&gt;&lt;/div&gt;&lt;div style=&quot;&quot;&gt;&lt;font style=&quot;font-size: 12px;&quot;&gt;                &lt;span style=&quot;&quot;&gt;_humidifier&lt;/span&gt;.&lt;span style=&quot;&quot;&gt;on&lt;/span&gt;();&lt;/font&gt;&lt;/div&gt;&lt;div style=&quot;&quot;&gt;&lt;font style=&quot;font-size: 12px;&quot;&gt;                _humidifyingStartTime &lt;span style=&quot;&quot;&gt;=&lt;/span&gt; now;&lt;/font&gt;&lt;/div&gt;&lt;div style=&quot;&quot;&gt;&lt;font style=&quot;font-size: 12px;&quot;&gt;                _state &lt;span style=&quot;&quot;&gt;=&lt;/span&gt; HUMIDIFYING;&lt;/font&gt;&lt;/div&gt;&lt;div style=&quot;&quot;&gt;&lt;font style=&quot;font-size: 12px;&quot;&gt;                _lastStateChangeTime &lt;span style=&quot;&quot;&gt;=&lt;/span&gt; now;&lt;/font&gt;&lt;/div&gt;&lt;/div&gt;" style="edgeLabel;html=1;align=right;verticalAlign=middle;resizable=0;points=[];labelBackgroundColor=none;fontColor=#CC0000;" vertex="1" connectable="0" parent="rywL7MJu8Erwyj4a9i6U-15">
          <mxGeometry x="0.0583" y="1" relative="1" as="geometry">
            <mxPoint x="244" y="74" as="offset" />
          </mxGeometry>
        </mxCell>
        <mxCell id="rywL7MJu8Erwyj4a9i6U-16" value="" style="endArrow=classic;html=1;rounded=0;exitX=1;exitY=0.25;exitDx=0;exitDy=0;entryX=0;entryY=0.25;entryDx=0;entryDy=0;fillColor=#008a00;strokeColor=#005700;" parent="1" source="rywL7MJu8Erwyj4a9i6U-2" target="rywL7MJu8Erwyj4a9i6U-1" edge="1">
          <mxGeometry width="50" height="50" relative="1" as="geometry">
            <mxPoint x="565" y="220" as="sourcePoint" />
            <mxPoint x="615" y="170" as="targetPoint" />
          </mxGeometry>
        </mxCell>
        <mxCell id="5xQOcERZIxtagGMFa1CP-11" value="&lt;div style=&quot;font-family: &amp;quot;Droid Sans Mono&amp;quot;, &amp;quot;monospace&amp;quot;, monospace; line-height: 19px; white-space-collapse: preserve;&quot;&gt;&lt;div style=&quot;&quot;&gt;&lt;font style=&quot;font-size: 12px;&quot;&gt;&lt;span style=&quot;&quot;&gt;_dht&lt;/span&gt;.&lt;span style=&quot;&quot;&gt;getHumidity&lt;/span&gt;() &lt;span style=&quot;&quot;&gt;&amp;gt;&lt;/span&gt; &lt;span style=&quot;&quot;&gt;getHumLowerThreshold&lt;/span&gt;() &lt;span style=&quot;&quot;&gt;||&lt;/span&gt;&lt;/font&gt;&lt;/div&gt;&lt;div style=&quot;&quot;&gt;&lt;font style=&quot;font-size: 12px;&quot;&gt;(now &lt;span style=&quot;&quot;&gt;-&lt;/span&gt; _humidifyingStartTime) &lt;span style=&quot;&quot;&gt;&amp;gt;=&lt;/span&gt; MAX_HUMIDIFIER_OPERATION_TIME_MS&lt;/font&gt;&lt;/div&gt;&lt;div style=&quot;&quot;&gt;&lt;font style=&quot;font-size: 12px;&quot;&gt;/&lt;/font&gt;&lt;/div&gt;&lt;div style=&quot;&quot;&gt;&lt;font style=&quot;font-size: 12px;&quot;&gt;&lt;span style=&quot;&quot;&gt;_humidifier&lt;/span&gt;.&lt;span style=&quot;&quot;&gt;off&lt;/span&gt;();&lt;/font&gt;&lt;/div&gt;&lt;div style=&quot;&quot;&gt;&lt;font style=&quot;font-size: 12px;&quot;&gt;_humidifierLastUseTime &lt;span style=&quot;&quot;&gt;=&lt;/span&gt; now;&lt;/font&gt;&lt;/div&gt;&lt;div style=&quot;&quot;&gt;&lt;font style=&quot;font-size: 12px;&quot;&gt;_state &lt;span style=&quot;&quot;&gt;=&lt;/span&gt; IDLE;&lt;/font&gt;&lt;/div&gt;&lt;div style=&quot;&quot;&gt;&lt;font style=&quot;font-size: 12px;&quot;&gt;_lastStateChangeTime &lt;span style=&quot;&quot;&gt;=&lt;/span&gt; now;&lt;/font&gt;&lt;/div&gt;&lt;/div&gt;" style="edgeLabel;html=1;align=left;verticalAlign=middle;resizable=0;points=[];labelBackgroundColor=none;fontColor=#006600;" vertex="1" connectable="0" parent="rywL7MJu8Erwyj4a9i6U-16">
          <mxGeometry x="0.0089" y="1" relative="1" as="geometry">
            <mxPoint x="-232" y="-74" as="offset" />
          </mxGeometry>
        </mxCell>
      </root>
    </mxGraphModel>
  </diagram>
</mxfile>
